<?xml version="1.0" standalone="no"?>
<!DOCTYPE svg PUBLIC "-//W3C//DTD SVG 20010904//EN"
 "http://www.w3.org/TR/2001/REC-SVG-20010904/DTD/svg10.dtd">
<svg version="1.0" xmlns="http://www.w3.org/2000/svg"
 width="700.000000pt" height="700.000000pt" viewBox="0 0 700.000000 700.000000"
 preserveAspectRatio="xMidYMid meet">
<metadata>
Created by potrace 1.14, written by Peter Selinger 2001-2017
</metadata>
<g transform="translate(0.000000,700.000000) scale(0.100000,-0.100000)"
fill="#000000" stroke="none">
<path d="M3395 6863 c-112 -16 -192 -49 -290 -117 l-60 -43 -45 14 c-64 19
-273 18 -351 -2 -95 -25 -196 -81 -264 -146 l-61 -58 -124 2 c-78 1 -146 -4
-180 -12 -133 -33 -244 -105 -313 -202 -25 -36 -65 -75 -108 -104 -37 -25 -84
-64 -104 -86 -29 -33 -50 -44 -114 -63 -195 -56 -329 -192 -386 -389 -14 -48
-23 -62 -59 -86 -52 -36 -99 -89 -126 -141 -11 -21 -46 -59 -78 -83 -152 -117
-203 -216 -218 -424 l-7 -98 -53 -57 c-49 -54 -94 -142 -94 -186 0 -9 -25 -66
-55 -127 -30 -60 -62 -137 -70 -170 -20 -77 -18 -203 3 -285 l17 -65 -32 -70
c-30 -65 -34 -84 -43 -215 -5 -80 -14 -173 -21 -208 -8 -46 -8 -82 0 -137 20
-135 53 -208 143 -316 l51 -61 -17 -74 c-20 -93 -20 -153 -1 -229 24 -89 71
-168 151 -251 69 -72 72 -77 62 -106 -15 -42 -3 -279 17 -353 59 -212 193
-342 410 -400 39 -10 72 -20 74 -21 2 -2 7 -38 11 -81 11 -101 40 -178 97
-254 86 -115 203 -188 344 -217 l78 -16 21 -57 c44 -123 158 -252 270 -309
115 -58 224 -72 400 -49 l86 11 109 -109 c67 -66 128 -118 156 -131 79 -38
181 -54 314 -50 105 4 128 8 182 32 l62 28 54 -35 c110 -73 257 -97 387 -62
30 8 91 19 135 25 111 15 189 37 263 72 63 29 63 29 125 15 243 -59 438 -9
597 153 74 75 76 76 147 88 99 16 172 46 242 97 35 26 93 55 143 72 100 35
213 107 263 168 37 45 115 187 115 209 0 7 31 49 69 93 65 75 74 81 133 97
155 43 278 140 341 269 41 82 55 135 68 261 7 66 17 105 41 153 28 58 40 70
120 125 132 90 210 201 244 345 19 82 14 174 -17 283 -11 41 -18 84 -16 95 14
59 71 185 106 235 52 74 77 138 92 239 21 150 1 243 -87 387 l-46 76 10 57
c16 81 24 469 11 538 -17 97 -79 212 -149 276 l-60 56 0 73 c-1 223 -115 431
-287 520 -38 20 -80 38 -94 42 -22 5 -28 13 -33 48 -4 24 -18 70 -32 103 -14
33 -35 92 -46 130 -34 120 -74 192 -153 270 -83 84 -159 125 -298 159 l-92 23
-28 55 c-87 171 -230 274 -440 316 -69 14 -87 14 -162 1 -47 -9 -85 -12 -85
-8 0 21 -104 161 -150 202 -61 55 -169 110 -260 133 -128 32 -308 4 -428 -67
l-34 -19 -48 43 c-132 115 -312 180 -445 160z m193 -84 c43 -14 41 -14 -70
-14 -129 0 -160 -8 -269 -71 -82 -47 -100 -52 -119 -29 -10 12 -6 18 22 35 53
33 139 73 188 87 54 15 186 11 248 -8z m53 -95 c30 -9 79 -29 109 -46 70 -39
190 -129 190 -142 -1 -6 -25 -37 -55 -69 l-55 -58 -57 18 c-38 11 -94 17 -163
17 l-105 1 -113 -52 -114 -52 -51 42 c-29 23 -69 53 -89 65 -23 14 -38 31 -38
43 0 11 33 52 73 93 72 73 137 117 205 142 52 18 197 17 263 -2z m799 -40 c47
-22 100 -54 118 -69 33 -28 132 -160 132 -176 0 -5 -33 16 -73 44 -127 91
-245 130 -392 130 -63 -1 -109 -7 -155 -21 l-65 -21 -35 32 c-19 17 -39 35
-43 38 -9 7 84 54 148 75 26 9 81 13 160 11 118 -2 122 -3 205 -43z m-1488 15
c62 -13 158 -54 158 -67 0 -4 -18 -33 -40 -62 l-40 -54 -153 3 c-92 1 -172 -2
-202 -9 -73 -18 -202 -82 -259 -129 -54 -46 -106 -56 -106 -22 0 40 71 160
121 205 57 52 166 109 249 130 67 18 200 20 272 5z m1358 -160 c171 -21 338
-136 411 -284 17 -36 30 -67 28 -68 -2 -2 -32 -29 -66 -61 l-62 -58 -81 16
c-44 9 -106 16 -138 16 -52 -1 -78 -5 -168 -25 -28 -6 -32 -3 -66 47 -55 83
-114 144 -187 195 -36 26 -70 50 -75 54 -15 13 41 77 100 116 90 60 154 71
304 52z m-2043 -81 c-3 -18 -10 -45 -16 -60 l-10 -27 -105 6 c-152 9 -258 -17
-365 -88 -34 -23 -34 -23 -22 -1 21 40 110 118 165 146 82 42 140 54 255 55
l104 1 -6 -32z m783 -41 c41 -21 96 -53 122 -72 l48 -35 -40 -52 c-22 -29 -54
-85 -71 -123 l-31 -70 -96 -1 c-152 -2 -313 -57 -411 -141 l-40 -33 -58 37
c-33 21 -83 47 -112 58 l-53 20 5 60 c13 173 174 334 380 381 39 8 103 13 172
11 105 -3 115 -5 185 -40z m1985 -32 c189 -49 330 -177 379 -344 23 -79 21
-81 -29 -24 -25 29 -76 72 -114 97 -111 74 -193 97 -348 97 l-103 0 -40 79
-40 79 63 14 c82 20 160 20 232 2z m-1204 -57 c105 -53 193 -126 263 -218 l45
-61 -64 -79 c-35 -44 -74 -97 -87 -119 l-22 -39 -101 1 c-111 1 -175 -14 -288
-66 l-69 -31 -36 45 c-63 79 -160 167 -243 221 -93 61 -93 56 -26 182 40 75
46 82 112 118 39 21 104 52 145 68 69 28 83 30 176 27 99 -2 105 -4 195 -49z
m-1609 -29 c29 -6 61 -16 71 -21 16 -8 16 -11 -2 -46 -22 -44 -51 -148 -51
-185 0 -32 -15 -37 -103 -37 -96 -1 -146 -13 -244 -61 -61 -30 -100 -59 -161
-120 -76 -75 -101 -89 -129 -71 -15 10 -1 157 20 218 52 145 155 257 285 310
47 19 75 24 159 24 56 0 126 -5 155 -11z m-606 -175 c-5 -18 -12 -24 -22 -20
-9 3 -25 6 -37 6 -17 0 -13 5 19 29 41 31 50 27 40 -15z m3486 1 c114 -29 267
-164 307 -270 22 -58 50 -249 38 -261 -3 -3 -30 2 -59 12 -73 26 -233 26 -306
0 -29 -10 -55 -16 -56 -15 -2 2 -13 36 -24 74 -40 133 -128 248 -249 327 -35
22 -63 46 -63 53 0 21 102 85 150 94 53 11 195 3 262 -14z m-3532 -91 c0 -3
-9 -40 -19 -82 -11 -43 -22 -100 -26 -129 l-7 -52 -87 2 c-85 2 -91 0 -172
-40 -46 -23 -112 -65 -146 -93 -34 -27 -64 -50 -67 -50 -8 0 3 57 26 129 45
146 178 267 336 305 58 15 162 21 162 10z m3028 -37 c83 -34 193 -108 238
-160 46 -53 100 -165 115 -239 11 -54 10 -63 -21 -150 -17 -51 -36 -98 -41
-104 -7 -9 -24 -8 -67 3 -87 24 -242 21 -319 -6 -74 -25 -73 -25 -73 -7 0 8
-20 54 -45 103 -67 134 -200 268 -327 329 l-37 17 49 71 c65 97 95 123 176
152 61 22 81 24 179 21 90 -3 121 -9 173 -30z m1010 -13 c105 -35 204 -103
258 -177 24 -32 44 -63 44 -68 0 -5 -21 8 -47 28 -82 62 -222 112 -314 113
-41 0 -49 13 -49 88 0 51 3 51 108 16z m-2503 -9 c77 -33 173 -106 259 -196
47 -49 86 -95 86 -101 0 -5 -11 -19 -25 -30 -31 -24 -120 -159 -141 -214 l-16
-41 -74 -7 c-123 -11 -280 -70 -373 -140 l-33 -25 -38 47 c-61 78 -158 159
-237 199 l-74 38 6 65 c13 133 28 167 114 250 90 87 144 119 261 155 70 21
100 24 165 21 44 -2 98 -12 120 -21z m-740 -65 c110 -46 111 -49 64 -146 -35
-70 -41 -92 -46 -171 l-6 -91 -66 -12 c-105 -17 -247 -57 -307 -86 -31 -15
-86 -55 -123 -89 -57 -55 -69 -62 -86 -52 -11 6 -45 18 -75 28 -76 23 -82 37
-77 179 3 109 5 119 38 180 40 76 143 185 214 226 90 52 139 63 273 64 115 0
128 -2 197 -30z m3290 -115 c142 -37 262 -141 335 -290 l43 -90 -12 -120 c-17
-174 -15 -168 -70 -161 -25 3 -68 12 -95 19 -47 12 -49 13 -71 73 -35 100
-146 238 -237 298 -24 15 -27 25 -33 94 -3 42 -8 103 -11 135 l-6 57 49 0 c27
0 75 -7 108 -15z m-1744 -55 c30 -5 92 -29 139 -52 120 -58 210 -150 273 -277
30 -58 47 -106 47 -128 0 -26 -23 -77 -86 -190 l-87 -154 -96 6 c-72 5 -120 3
-191 -10 -52 -10 -104 -18 -114 -19 -14 -1 -43 31 -102 114 -92 128 -190 226
-294 295 -39 26 -70 50 -70 54 0 15 92 167 118 194 48 50 162 119 246 148 87
31 132 35 217 19z m-2400 -46 c46 -9 87 -18 90 -20 4 -2 0 -30 -9 -62 -11 -38
-16 -99 -17 -184 l0 -127 -64 -11 c-36 -6 -81 -18 -100 -26 -54 -22 -173 -118
-244 -195 l-64 -68 -31 19 c-50 31 -56 51 -57 205 0 187 11 229 83 307 91 98
220 176 293 177 20 1 74 -6 120 -15z m-538 -205 c-4 -4 -28 -12 -52 -18 l-44
-9 49 49 49 50 3 -32 c2 -17 0 -35 -5 -40z m4393 53 c126 -44 272 -167 335
-284 34 -63 34 -63 34 -198 0 -86 -5 -152 -14 -183 -16 -55 -6 -53 -126 -17
-59 18 -88 21 -191 17 l-120 -4 -23 71 c-38 118 -131 240 -238 312 -32 21 -62
41 -66 45 -10 7 49 168 71 193 9 10 40 29 67 42 64 30 193 33 271 6z m-2905
-124 c71 -24 212 -143 257 -217 l20 -33 -34 -62 c-41 -75 -71 -161 -80 -227
-6 -47 -8 -49 -43 -54 -272 -42 -387 -99 -498 -250 l-22 -30 -105 55 -105 55
-20 85 c-57 247 -30 402 93 525 76 76 164 113 381 158 42 9 123 7 156 -5z
m-1506 -192 l0 -184 -55 -23 c-96 -39 -173 -89 -242 -156 l-66 -66 -7 58 c-11
88 0 212 25 278 37 99 153 208 275 259 73 31 70 39 70 -166z m2328 80 c121
-44 244 -152 355 -314 l82 -120 -35 -42 c-41 -49 -94 -137 -158 -265 -68 -136
-41 -123 -278 -127 l-205 -3 -80 67 c-85 71 -231 217 -258 258 -45 68 12 279
104 384 52 59 209 146 305 169 41 10 131 6 168 -7z m1521 -26 c43 -11 105 -34
139 -52 124 -66 239 -215 266 -348 22 -102 -4 -255 -61 -362 -51 -97 -46 -95
-196 -59 l-129 31 -99 -19 c-101 -19 -114 -19 -114 3 0 23 -77 170 -115 221
-52 70 -132 151 -182 186 -24 17 -43 36 -43 42 0 21 158 279 192 314 61 63
197 80 342 43z m1381 -20 c107 -51 205 -183 246 -330 21 -77 17 -205 -10 -290
l-24 -75 -13 86 c-28 188 -114 322 -265 415 -32 20 -59 38 -59 39 0 1 5 28 10
61 6 32 13 74 16 92 6 40 18 40 99 2z m-4511 -30 c32 -5 69 -16 82 -25 23 -15
23 -16 8 -57 -21 -58 -29 -245 -15 -338 7 -41 14 -92 18 -112 5 -31 2 -39 -13
-44 -89 -31 -175 -70 -220 -100 -59 -39 -149 -122 -180 -166 l-19 -27 -80 34
c-44 19 -90 46 -102 60 -52 59 -70 269 -32 390 33 109 50 134 155 234 123 118
171 141 329 160 6 0 36 -3 69 -9z m4269 -166 c143 -35 261 -125 321 -245 46
-91 58 -158 54 -289 -3 -107 -4 -109 -52 -204 -26 -53 -52 -96 -56 -96 -4 0
-28 9 -54 21 -26 11 -75 23 -109 27 l-62 7 -7 61 c-3 34 -12 81 -18 105 -20
75 -86 201 -139 264 -28 32 -51 65 -51 71 0 7 6 41 14 76 8 35 17 97 21 138 4
41 9 79 12 83 5 9 30 5 126 -19z m-4897 -104 l33 -21 -21 -57 c-30 -83 -30
-280 0 -372 12 -36 22 -70 22 -77 0 -7 -26 -29 -57 -49 -102 -64 -162 -115
-214 -181 -47 -61 -52 -64 -82 -58 -44 10 -64 30 -98 98 -46 90 -62 169 -56
262 15 211 125 356 336 446 79 34 94 35 137 9z m3135 -96 c80 -24 132 -58 202
-134 91 -98 165 -240 166 -316 1 -60 -19 -110 -110 -270 -108 -189 -100 -182
-185 -173 -38 4 -147 11 -241 15 l-172 7 -157 210 -157 209 71 142 c107 215
172 295 258 315 68 16 265 13 325 -5z m1351 -55 c166 -35 307 -180 363 -372
24 -85 22 -206 -5 -287 -24 -73 -76 -169 -95 -176 -7 -3 -48 4 -91 15 -116 29
-222 44 -287 40 l-57 -4 -20 61 c-23 70 -74 158 -128 224 -21 25 -43 52 -50
61 -10 14 -6 28 27 85 48 85 76 166 90 262 5 41 12 76 14 78 8 8 91 22 139 23
26 1 71 -4 100 -10z m-4999 -56 c6 -33 -7 -50 -64 -82 l-40 -23 21 43 c23 45
58 89 71 89 3 0 9 -12 12 -27z m2122 -33 c38 -60 146 -170 256 -261 l99 -82
-38 -41 c-86 -93 -175 -251 -231 -409 -17 -49 -31 -99 -31 -113 0 -30 -1 -30
-46 1 -68 46 -217 83 -444 110 l-46 6 -27 70 c-51 129 -60 182 -54 314 3 78
11 137 22 168 23 64 109 156 182 195 78 41 211 78 295 81 34 1 40 -3 63 -39z
m3906 -143 c63 -86 91 -157 103 -267 l7 -55 -41 63 c-23 34 -74 92 -114 129
l-73 67 26 62 c30 72 40 72 92 1z m-6054 -38 c-14 -99 1 -184 53 -304 l39 -90
-27 -20 c-56 -42 -143 -130 -170 -172 -15 -23 -30 -43 -33 -43 -3 0 -20 31
-38 70 -92 199 -33 471 132 601 27 22 51 38 53 37 1 -2 -3 -37 -9 -79z m1425
-1 c99 -51 103 -54 100 -83 -2 -16 -4 -88 -5 -160 -2 -137 4 -171 58 -315 l25
-65 -78 -80 c-43 -45 -92 -108 -110 -143 -19 -35 -40 -66 -48 -69 -8 -3 -109
18 -225 47 l-210 53 -29 58 c-105 207 -106 379 -5 556 53 92 169 181 298 229
91 34 113 31 229 -28z m4574 -173 c107 -106 149 -228 142 -416 -3 -97 -6 -111
-37 -173 -39 -76 -102 -153 -118 -143 -5 3 -13 46 -16 94 -11 165 -58 287
-154 400 -56 66 -56 66 -39 92 30 45 85 168 92 205 l6 36 32 -18 c17 -9 58
-44 92 -77z m-1531 19 c91 -29 142 -64 201 -138 124 -153 155 -332 87 -508
-29 -73 -107 -202 -138 -228 -8 -7 -38 -12 -66 -11 -65 1 -390 48 -423 61 -18
6 -34 27 -50 64 -29 65 -96 169 -159 245 l-44 55 60 95 c33 53 82 141 109 196
27 55 57 116 66 135 15 31 24 36 87 52 88 22 165 17 270 -18z m-1500 -24 c27
-22 305 -395 305 -409 0 -18 -19 -53 -158 -300 l-127 -223 -256 3 c-298 5
-265 -7 -359 130 -79 115 -100 162 -100 226 0 68 18 120 95 279 49 99 79 146
126 198 97 106 125 116 315 113 108 -2 145 -5 159 -17z m-2252 -22 c89 -36 85
-26 52 -148 -33 -124 -6 -286 73 -434 l26 -48 -29 -21 c-69 -47 -159 -152
-192 -223 l-33 -72 -47 14 c-135 40 -195 93 -257 224 -46 98 -61 189 -46 287
30 195 99 295 277 401 48 29 89 52 92 52 3 0 41 -14 84 -32z m4887 -140 c46
-14 119 -68 171 -126 85 -95 135 -251 127 -391 -4 -64 -11 -88 -42 -147 -20
-39 -65 -101 -99 -138 l-62 -67 -95 16 c-154 24 -139 12 -133 108 9 131 -10
213 -78 348 l-59 116 43 64 c24 36 53 97 66 139 12 41 24 81 27 88 4 14 69 10
134 -10z m-5388 -126 c4 -4 1 -44 -8 -88 -25 -120 -16 -248 25 -345 17 -42 45
-98 62 -124 29 -45 29 -49 12 -58 -36 -19 -131 -129 -162 -187 l-32 -60 -31
17 c-42 25 -119 111 -145 164 -35 71 -53 156 -53 254 0 179 70 320 204 411 41
28 58 34 85 30 19 -3 38 -9 43 -14z m4824 -117 c117 -20 195 -43 218 -63 32
-30 97 -150 121 -224 58 -185 34 -329 -81 -484 -52 -70 -89 -94 -147 -94 -65
0 -338 48 -362 64 -13 9 -27 39 -38 85 -11 40 -35 104 -54 142 l-35 70 51 74
c29 41 65 103 81 137 32 68 70 204 70 249 0 35 24 59 59 59 16 0 68 -7 117
-15z m-1360 -45 c55 -5 111 -14 125 -20 31 -14 121 -129 179 -227 88 -151 65
-250 -123 -532 -27 -40 -65 -91 -84 -112 l-35 -39 -212 0 -211 1 -112 172
c-61 95 -121 189 -133 210 l-22 37 71 130 c100 182 199 348 222 371 16 16 34
19 127 19 59 -1 152 -5 208 -10z m-3866 -45 l22 -36 -46 -49 -46 -49 0 29 c0
26 36 140 45 140 2 0 13 -16 25 -35z m2002 -20 c146 -19 232 -41 302 -78 64
-34 72 -43 197 -234 l80 -122 -39 -58 c-96 -142 -172 -302 -172 -362 0 -16 -6
-31 -13 -34 -21 -8 -297 12 -401 29 -55 9 -127 26 -160 37 -59 21 -62 24 -98
92 -20 39 -49 106 -63 149 -68 205 -31 360 123 519 86 88 75 85 244 62z m4400
-222 l43 -87 0 -120 c0 -100 -4 -133 -24 -189 -12 -37 -27 -65 -32 -61 -5 3
-9 26 -9 52 0 95 -48 221 -117 307 l-40 51 54 59 c29 33 53 63 53 68 0 4 7 7
15 7 8 0 33 -37 57 -87z m-6399 -25 c11 -142 49 -238 131 -337 25 -30 42 -59
39 -65 -4 -6 -29 -45 -56 -86 l-50 -74 -44 49 c-106 120 -148 296 -108 450 17
63 63 157 75 150 4 -2 10 -42 13 -87z m1337 4 l195 -47 6 -125 c5 -107 11
-138 39 -215 18 -49 42 -110 55 -135 l23 -45 -43 -60 c-51 -72 -89 -145 -104
-202 -7 -25 -21 -47 -32 -54 -14 -7 -68 -10 -153 -7 -120 3 -135 6 -186 32
-178 91 -248 199 -281 432 -17 122 17 260 88 352 37 49 140 122 172 122 14 0
114 -22 221 -48z m4852 -94 c94 -116 122 -192 121 -333 0 -148 -38 -270 -109
-354 -43 -52 -187 -151 -200 -139 -2 3 3 36 11 74 27 129 11 313 -41 466 l-23
69 52 62 c29 34 70 92 92 130 21 37 44 67 51 67 6 0 27 -19 46 -42z m-1627
-58 c110 -17 207 -32 216 -35 9 -3 30 -36 47 -73 89 -192 89 -387 0 -555 -73
-136 -229 -219 -443 -233 l-90 -7 -30 64 c-39 82 -97 160 -192 260 l-76 80 21
27 c49 61 165 239 194 296 25 50 55 123 83 205 4 9 15 11 38 7 17 -3 122 -19
232 -36z m-3947 -59 c31 -16 83 -37 115 -47 l57 -18 0 -70 c1 -159 49 -329
116 -412 l43 -53 -44 -52 c-52 -61 -82 -119 -106 -204 -16 -57 -18 -60 -47
-59 -61 3 -181 72 -256 148 -119 119 -163 236 -154 413 8 151 63 267 162 344
28 21 52 39 54 39 1 0 28 -13 60 -29z m2458 -31 l102 0 125 -192 c69 -106 130
-202 135 -214 13 -25 -18 -97 -99 -231 -68 -112 -137 -186 -207 -220 -49 -24
-72 -28 -163 -31 -125 -5 -232 10 -297 40 -99 47 -204 185 -232 307 -16 68 -7
181 20 253 21 57 128 237 164 277 21 23 21 24 185 17 90 -3 210 -6 267 -6z
m2698 -79 c76 -12 113 -23 122 -35 16 -22 52 -172 63 -263 20 -158 -31 -339
-124 -442 -38 -42 -124 -91 -211 -121 -73 -26 -73 -25 -122 10 l-41 29 19 57
c48 139 46 303 -5 454 l-24 71 58 69 c32 38 72 96 90 130 20 38 38 60 49 60 9
-1 66 -9 126 -19z m-5517 -133 c6 -7 13 -75 17 -150 5 -111 10 -149 31 -203
30 -80 79 -155 139 -215 25 -24 46 -48 46 -52 0 -4 -23 -50 -51 -103 l-51 -95
-40 22 c-22 13 -75 56 -119 96 -106 99 -151 186 -157 305 -3 66 0 95 18 147
33 98 126 260 150 260 4 0 12 -6 17 -12z m4868 -97 c61 -11 143 -23 184 -27
l73 -7 24 -53 c68 -153 53 -389 -33 -519 -40 -60 -119 -141 -172 -174 -71 -46
-134 -57 -203 -37 -50 14 -66 27 -151 116 -52 55 -114 122 -136 149 l-41 49
50 32 c127 82 217 230 235 387 12 107 15 115 38 109 12 -3 72 -14 132 -25z
m-3318 -100 c104 -31 153 -39 359 -56 106 -9 191 -20 195 -27 4 -5 9 -30 13
-55 9 -65 60 -166 122 -239 30 -35 54 -66 54 -69 0 -4 -47 -78 -105 -165 -73
-111 -114 -164 -136 -175 -86 -45 -331 -61 -439 -29 -146 42 -251 158 -295
325 -17 63 -19 214 -4 279 23 100 119 250 153 237 7 -3 45 -15 83 -26z m2224
-139 c201 -208 228 -291 155 -472 -48 -117 -114 -184 -266 -268 -79 -44 -127
-53 -267 -53 -116 0 -127 1 -169 26 -74 43 -148 151 -230 332 l-37 82 53 58
c67 73 123 159 189 290 l51 102 67 4 c38 2 132 4 209 5 l141 2 104 -108z
m2257 -195 c9 -156 -42 -277 -163 -385 -33 -28 -61 -52 -64 -52 -4 0 -6 64 -7
143 -1 111 -5 157 -21 210 l-20 67 26 18 c14 10 47 31 73 45 26 15 69 46 95
69 l47 41 14 -34 c8 -19 17 -74 20 -122z m-4967 35 l158 -4 6 -56 c17 -148 51
-247 118 -351 l35 -54 -23 -51 c-12 -28 -35 -89 -49 -136 -15 -46 -32 -90 -38
-98 -68 -82 -312 -46 -472 69 -89 63 -177 221 -198 352 -22 144 16 283 102
375 l39 42 82 -42 81 -43 159 -3z m4655 -168 c48 -220 -24 -477 -164 -579 -55
-40 -160 -81 -232 -91 l-51 -7 27 59 c25 53 28 73 31 194 3 74 0 167 -4 207
l-9 72 37 6 c51 9 173 68 232 113 26 20 59 53 73 74 15 21 30 35 35 33 4 -3
15 -40 25 -81z m-1255 -96 c67 -73 130 -152 140 -175 19 -41 19 -43 0 -133
-36 -164 -76 -223 -211 -309 -101 -65 -233 -110 -345 -118 l-84 -6 -31 33
c-33 36 -139 193 -189 281 l-31 56 42 28 c157 103 237 222 273 401 7 37 23 43
105 44 30 1 84 7 120 14 36 8 70 14 77 15 7 0 67 -59 134 -131z m-4099 62 c36
-16 86 -34 111 -41 45 -11 46 -12 52 -58 10 -75 54 -205 93 -272 21 -34 61
-86 90 -117 l54 -55 -25 -76 c-14 -42 -28 -95 -32 -118 -4 -24 -11 -43 -16
-43 -33 0 -162 36 -204 57 -171 86 -259 214 -284 411 -13 104 1 189 45 273 20
38 40 69 44 69 4 0 37 -13 72 -30z m2044 -6 c49 -21 198 -44 282 -44 35 0 95
7 133 16 39 9 72 14 73 12 2 -1 38 -71 81 -155 57 -112 92 -169 135 -216 l58
-63 -33 -63 c-69 -129 -156 -220 -246 -260 -115 -51 -343 -65 -434 -26 -67 28
-163 103 -205 159 -50 66 -86 154 -102 246 -11 65 -11 73 10 115 35 72 184
295 198 295 6 0 29 -7 50 -16z m2802 -72 c35 -32 48 -83 57 -222 13 -191 -20
-283 -145 -410 -93 -94 -192 -138 -352 -155 l-65 -7 -42 78 c-23 42 -56 95
-72 116 l-31 38 31 48 c36 57 63 131 80 223 l13 66 81 6 c156 13 244 61 362
199 22 25 43 47 46 47 4 1 20 -12 37 -27z m-5121 -97 l43 -26 0 -67 c0 -84 30
-196 77 -284 40 -77 132 -169 212 -215 50 -28 66 -46 55 -64 -9 -15 -39 -10
-116 17 -209 76 -299 203 -328 464 -10 87 -5 200 8 200 3 0 25 -11 49 -25z
m1423 -173 c108 -53 315 -64 482 -25 37 8 72 12 77 8 6 -3 11 -20 11 -36 0
-77 75 -237 151 -325 27 -30 49 -60 49 -65 0 -29 -60 -121 -114 -175 -77 -77
-124 -94 -255 -94 -117 0 -201 20 -308 72 -203 99 -290 286 -235 506 23 92 58
176 69 170 5 -2 37 -18 73 -36z m2163 -159 c13 -21 48 -78 78 -126 30 -48 77
-117 106 -153 l52 -65 -15 -42 c-21 -62 -101 -162 -167 -208 -69 -49 -194
-103 -276 -120 -114 -24 -291 23 -359 94 -38 41 -162 258 -162 284 0 4 20 21
44 36 66 42 155 143 205 233 l45 80 145 -4 c106 -2 160 1 196 11 75 22 83 20
108 -20z m-2776 -102 c126 -52 258 -66 341 -37 l41 15 11 -57 c17 -85 72 -189
135 -259 l56 -62 -26 -118 c-16 -72 -32 -123 -42 -130 -48 -37 -266 -12 -371
41 -149 75 -272 266 -272 420 0 56 41 216 55 216 1 0 34 -13 72 -29z m4703
-99 c-21 -84 -73 -175 -135 -238 -50 -50 -73 -65 -138 -89 -42 -15 -79 -26
-81 -24 -2 2 2 33 10 69 7 36 14 113 14 171 l0 107 48 7 c70 10 185 51 239 85
l48 29 3 -36 c2 -20 -2 -57 -8 -81z m-1037 -49 c74 -112 80 -129 74 -196 -14
-157 -137 -298 -346 -395 -68 -32 -87 -36 -178 -40 -57 -2 -119 -1 -139 3 -46
8 -127 87 -172 167 l-32 58 63 62 c46 46 74 85 103 145 l39 82 40 1 c115 1
289 56 396 126 46 29 89 54 96 54 6 0 32 -30 56 -67z m647 -55 c-1 -150 -45
-282 -126 -368 -100 -107 -224 -164 -382 -176 l-93 -7 -39 38 -39 38 39 46
c61 73 107 157 127 232 l17 68 46 7 c172 23 314 79 385 151 58 59 65 56 65
-29z m-4564 -28 c60 -12 62 -13 68 -49 28 -167 178 -339 359 -412 l77 -31 0
-39 0 -39 -97 0 c-163 0 -256 35 -363 136 -36 35 -78 85 -94 113 -34 64 -56
164 -56 265 0 76 1 78 23 73 12 -3 50 -11 83 -17z m1962 -52 c67 0 147 7 187
15 38 9 70 15 71 14 1 -1 31 -61 67 -132 72 -142 115 -200 171 -230 20 -11 36
-23 36 -28 0 -16 -96 -110 -155 -152 -133 -94 -203 -112 -378 -96 -140 13
-210 44 -294 128 -70 70 -107 137 -132 235 l-19 73 65 68 c35 38 76 92 90 121
l26 54 74 -36 c72 -34 77 -35 191 -34z m-981 -183 c37 -14 108 -33 158 -41 84
-15 111 -15 288 -1 27 2 30 -2 56 -78 33 -98 66 -151 143 -232 l59 -61 -34
-26 c-51 -39 -174 -93 -244 -106 -76 -15 -146 -5 -262 40 -119 46 -197 102
-248 178 -37 55 -43 71 -43 117 0 83 32 235 50 235 5 0 40 -11 77 -25z m2117
-177 c16 -28 53 -80 83 -115 l54 -64 -24 -53 c-14 -29 -51 -80 -83 -113 -132
-134 -249 -180 -438 -170 -124 6 -213 33 -288 87 -52 37 -118 118 -118 145 0
6 26 29 57 51 32 21 97 78 145 125 l88 87 42 -10 c105 -24 283 4 397 61 20 11
41 19 46 20 6 0 23 -22 39 -51z m-2278 -148 c22 -43 57 -89 90 -119 90 -82
270 -157 427 -176 38 -5 48 -10 45 -23 -5 -25 -97 -71 -175 -87 -200 -43 -382
10 -504 144 -76 84 -116 165 -125 253 l-6 67 83 4 c46 1 94 4 106 5 18 2 29
-11 59 -68z m3038 39 c31 -37 30 -42 -26 -158 -30 -62 -58 -101 -107 -150
-113 -113 -214 -151 -401 -151 -116 0 -164 10 -227 47 l-43 25 48 37 c75 60
141 137 168 195 l24 53 133 5 c152 6 229 27 331 89 33 21 64 38 68 39 3 0 18
-14 32 -31z m450 -48 c-38 -70 -130 -156 -206 -191 -70 -32 -224 -67 -251 -57
-15 6 -14 11 12 52 25 40 55 108 75 168 4 14 18 17 78 17 105 0 204 17 262 44
28 13 53 22 54 20 2 -1 -8 -25 -24 -53z m-3760 -147 c40 -84 134 -191 221
-251 43 -29 46 -33 20 -27 -102 24 -182 71 -252 148 -49 54 -118 180 -108 196
4 6 23 10 44 10 38 0 39 -1 75 -76z m1301 4 c76 -22 274 -28 330 -11 28 9 31
7 58 -36 16 -25 51 -69 79 -97 l49 -51 -53 -58 c-105 -116 -236 -176 -383
-177 -92 0 -188 22 -260 60 -59 32 -170 141 -203 199 l-22 41 52 16 c55 16
164 76 221 121 18 14 38 22 47 19 8 -4 47 -15 85 -26z m1995 -173 c0 -7 -57
-35 -104 -51 l-41 -14 34 30 c19 16 43 31 55 33 33 7 56 7 56 2z m-1355 -77
c50 -18 86 -23 215 -26 143 -3 161 -2 233 21 91 29 96 23 46 -54 -71 -111
-233 -220 -367 -248 -139 -29 -284 -5 -395 65 l-59 37 49 30 c69 43 146 111
178 157 15 22 31 40 34 40 4 0 34 -10 66 -22z m-990 -66 c98 -96 191 -146 319
-170 49 -9 85 -21 83 -27 -2 -5 -26 -19 -53 -29 -38 -15 -76 -19 -164 -20
-121 -1 -198 13 -264 46 -41 21 -196 168 -196 186 0 6 17 16 38 22 20 5 62 23
92 39 30 16 57 30 60 30 3 1 41 -34 85 -77z m1675 -7 c52 -14 91 -17 192 -12
l127 5 -47 -43 c-66 -61 -137 -102 -207 -120 -69 -18 -192 -20 -264 -4 l-51
11 61 71 c34 40 66 82 72 95 12 26 9 26 117 -3z m-1033 -191 c25 -19 73 -49
105 -65 32 -16 58 -32 58 -36 0 -8 -116 4 -162 17 -39 11 -162 89 -154 97 6 6
64 21 88 22 10 1 39 -15 65 -35z"/>
</g>
</svg>
